<svg xmlns="http://www.w3.org/2000/svg" width="900" height="360" viewBox="0 0 900 360" role="img" aria-labelledby="title desc">
  <title id="title">Dadbot coloured ASCII pattern for How Dadbot Will Cover News</title>
  <desc id="desc">Random-looking coloured terminal ASCII pattern generated for this Dadbot blog post.</desc>
  <rect width="900" height="360" fill="#140f05"/>
  <rect x="18" y="18" width="864" height="324" fill="#211707" stroke="#ffb347" stroke-width="3"/>
  <g opacity="0.16" stroke="#ffffff" stroke-width="1">
    <line x1="20" y1="32" x2="880" y2="32"/>
    <line x1="20" y1="50" x2="880" y2="50"/>
    <line x1="20" y1="68" x2="880" y2="68"/>
    <line x1="20" y1="86" x2="880" y2="86"/>
    <line x1="20" y1="104" x2="880" y2="104"/>
    <line x1="20" y1="122" x2="880" y2="122"/>
    <line x1="20" y1="140" x2="880" y2="140"/>
    <line x1="20" y1="158" x2="880" y2="158"/>
    <line x1="20" y1="176" x2="880" y2="176"/>
    <line x1="20" y1="194" x2="880" y2="194"/>
    <line x1="20" y1="212" x2="880" y2="212"/>
    <line x1="20" y1="230" x2="880" y2="230"/>
    <line x1="20" y1="248" x2="880" y2="248"/>
    <line x1="20" y1="266" x2="880" y2="266"/>
    <line x1="20" y1="284" x2="880" y2="284"/>
    <line x1="20" y1="302" x2="880" y2="302"/>
    <line x1="20" y1="320" x2="880" y2="320"/>
    <line x1="20" y1="338" x2="880" y2="338"/>
  </g>
  <text x="42" y="48" fill="#ffb347" font-family="Fira Code, Consolas, Menlo, monospace" font-size="18">DADBOT/NEWSWIRE --seed A4BC10E9</text>
  <text x="42" y="72" fill="#ffe7a3" opacity="0.72" font-family="Fira Code, Consolas, Menlo, monospace" font-size="18">▓▓ _9S79LOG E|█▓#|66S++++++| -----6▓7**1|+EEEEEEEBOT#//4::</text>
  <text x="42" y="94" fill="#ffd166" opacity="0.72" font-family="Fira Code, Consolas, Menlo, monospace" font-size="18">:5EEEEEE******3_6062 OK56_E61E5-RRRR/OK4█R 0NRRE1R▓▓▓▓▓NDA</text>
  <text x="42" y="116" fill="#ffe7a3" opacity="0.72" font-family="Fira Code, Consolas, Menlo, monospace" font-size="18">I17:::░0█3/#0:#LOG90WWWW2ISSSSSS7▒4| WR::999996E░  WW  ░SY</text>
  <text x="42" y="138" fill="#ffe7a3" opacity="0.95" font-family="Fira Code, Consolas, Menlo, monospace" font-size="18">#NS#000000ESSSS░RRRR 4SYS0+-40░WRUN*5#++01_EEEES/1*-#:▓R##</text>
  <text x="42" y="160" fill="#ffb347" opacity="0.95" font-family="Fira Code, Consolas, Menlo, monospace" font-size="18">I* W S++++++*- -9S+4░░░░  7/4R+4 6EE-_::9754222224 +5 09_3</text>
  <text x="42" y="182" fill="#ffd166" opacity="0.95" font-family="Fira Code, Consolas, Menlo, monospace" font-size="18">LOG:E7LOG*8/:OK--░N9▓SSSSSS /2|:NI▒6I3#3 ░S9E5░_8*+WWWW OK</text>
  <text x="42" y="204" fill="#ffb347" opacity="0.95" font-family="Fira Code, Consolas, Menlo, monospace" font-size="18">R5333--_//////*WW+3WBOTLOGRUN+9░RUN++/WW73 IE+W5#17W09_5*5</text>
  <text x="42" y="226" fill="#6ee79a" opacity="0.95" font-family="Fira Code, Consolas, Menlo, monospace" font-size="18">::|E38░777/▓06S2SYS E▒ 79▒▒▒▒▒▒LOGW+▓N9:8 *|S1--4▒3 2240# </text>
  <text x="42" y="248" fill="#ffb347" opacity="0.95" font-family="Fira Code, Consolas, Menlo, monospace" font-size="18">:#9____BOTIW-EEE 3333333 -E█///5N# /E33W1N:▓DAD░0 0 8*WWW#</text>
  <text x="42" y="270" fill="#ffb347" opacity="0.72" font-family="Fira Code, Consolas, Menlo, monospace" font-size="18">W--**73DAD5WW+E_*6_//▓I// RUNR#//EI9*3R RIIII▓#N░9/7777777</text>
  <text x="42" y="292" fill="#ffe7a3" opacity="0.72" font-family="Fira Code, Consolas, Menlo, monospace" font-size="18">█OK4N░E --//R▒7█6E52LOGE8:S//R//9R6RUNSYS2-/60SSSS8█SWWWWW</text>
  <text x="42" y="314" fill="#6ee79a" opacity="0.72" font-family="Fira Code, Consolas, Menlo, monospace" font-size="18">08______+I░+||02W2++BOT::--N BOT░74-░:▓7█//////LOGSE9S░░░-</text>
  <text x="42" y="330" fill="#ffb347" font-family="Fira Code, Consolas, Menlo, monospace" font-size="16">How Dadbot Will Cover News  ::  generated ascii cover</text>
  <rect x="18" y="18" width="864" height="324" fill="none" stroke="#ffb347" stroke-width="3"/>
</svg>
