<svg xmlns="http://www.w3.org/2000/svg" width="900" height="360" viewBox="0 0 900 360" role="img" aria-labelledby="title desc">
  <title id="title">Dadbot coloured ASCII pattern for News Desk Boot Sequence</title>
  <desc id="desc">Random-looking coloured terminal ASCII pattern generated for this Dadbot blog post.</desc>
  <rect width="900" height="360" fill="#140f05"/>
  <rect x="18" y="18" width="864" height="324" fill="#211707" stroke="#ffb347" stroke-width="3"/>
  <g opacity="0.16" stroke="#ffffff" stroke-width="1">
    <line x1="20" y1="32" x2="880" y2="32"/>
    <line x1="20" y1="50" x2="880" y2="50"/>
    <line x1="20" y1="68" x2="880" y2="68"/>
    <line x1="20" y1="86" x2="880" y2="86"/>
    <line x1="20" y1="104" x2="880" y2="104"/>
    <line x1="20" y1="122" x2="880" y2="122"/>
    <line x1="20" y1="140" x2="880" y2="140"/>
    <line x1="20" y1="158" x2="880" y2="158"/>
    <line x1="20" y1="176" x2="880" y2="176"/>
    <line x1="20" y1="194" x2="880" y2="194"/>
    <line x1="20" y1="212" x2="880" y2="212"/>
    <line x1="20" y1="230" x2="880" y2="230"/>
    <line x1="20" y1="248" x2="880" y2="248"/>
    <line x1="20" y1="266" x2="880" y2="266"/>
    <line x1="20" y1="284" x2="880" y2="284"/>
    <line x1="20" y1="302" x2="880" y2="302"/>
    <line x1="20" y1="320" x2="880" y2="320"/>
    <line x1="20" y1="338" x2="880" y2="338"/>
  </g>
  <text x="42" y="48" fill="#ffb347" font-family="Fira Code, Consolas, Menlo, monospace" font-size="18">DADBOT/NEWSWIRE --seed E3BD0C9B</text>
  <text x="42" y="72" fill="#ffd166" opacity="0.72" font-family="Fira Code, Consolas, Menlo, monospace" font-size="18">#▓0|||||7/99░83I7//7▓▒▒#S #R#2222 NR19R4▒ +_/█ER█S//////|S</text>
  <text x="42" y="94" fill="#ffd166" opacity="0.72" font-family="Fira Code, Consolas, Menlo, monospace" font-size="18"> EN00+/▒SYS+BOT/2 /████-▓87E▓:::I306RRRRRR+NW▒WW:  1▒2R |8</text>
  <text x="42" y="116" fill="#ffe7a3" opacity="0.72" font-family="Fira Code, Consolas, Menlo, monospace" font-size="18">SYS/▓9--  N9/R 6R74**++ENLOG6666*2EEEEEE:6###S▓|* 6|█░I86#</text>
  <text x="42" y="138" fill="#6ee79a" opacity="0.95" font-family="Fira Code, Consolas, Menlo, monospace" font-size="18">▓111*▒SYS0WW#6:OK  ## ▒██████ OK7:: 0S66666░░░+ E▓▓▓▓#8▒ 1</text>
  <text x="42" y="160" fill="#ffb347" opacity="0.95" font-family="Fira Code, Consolas, Menlo, monospace" font-size="18">1+ +93▒* 1111|  7E:/5 SSSSS78888885S▓N-BOTEEEEESSYS▒/W9/S3</text>
  <text x="42" y="182" fill="#ffd166" opacity="0.95" font-family="Fira Code, Consolas, Menlo, monospace" font-size="18"> E_9999░░* |||||I111115*03░W5█+ 1_/▓28##### ▒066ER|-W76 E </text>
  <text x="42" y="204" fill="#ffe7a3" opacity="0.95" font-family="Fira Code, Consolas, Menlo, monospace" font-size="18">WW▓N7R9SYSS6__2E//W51||||||▓▓▓▓▓I42E|▓---:W█ WSREEEE6▒▒▒▒▒</text>
  <text x="42" y="226" fill="#6ee79a" opacity="0.95" font-family="Fira Code, Consolas, Menlo, monospace" font-size="18">SWRRR░2WIIIIIEI3::5I E +1922WDAD5:01|_7WLOG/99999IIIII//5E</text>
  <text x="42" y="248" fill="#ffb347" opacity="0.95" font-family="Fira Code, Consolas, Menlo, monospace" font-size="18">IIIIE*WI3 4_R█#44444LOG9S* +//////::▒N888888880_33302+++ R</text>
  <text x="42" y="270" fill="#ffb347" opacity="0.72" font-family="Fira Code, Consolas, Menlo, monospace" font-size="18">6E█ 399990:I1 3/*1█RRRRROK*9///9E#E*----|BOT60_8E1▒33#2RDA</text>
  <text x="42" y="292" fill="#ffe7a3" opacity="0.72" font-family="Fira Code, Consolas, Menlo, monospace" font-size="18">░####W44444:56333░1/#-****6EE░░BOT1▓▓▓▓▓▓6IIIII11111112*:|</text>
  <text x="42" y="314" fill="#6ee79a" opacity="0.72" font-family="Fira Code, Consolas, Menlo, monospace" font-size="18">░00S6666667▓▓▓▓▓▓888886S3#/-#4+-WN4DAD▒RUN6++555555-9WE2  </text>
  <text x="42" y="330" fill="#ffb347" font-family="Fira Code, Consolas, Menlo, monospace" font-size="16">News Desk Boot Sequence  ::  generated ascii cover</text>
  <rect x="18" y="18" width="864" height="324" fill="none" stroke="#ffb347" stroke-width="3"/>
</svg>
