<svg xmlns="http://www.w3.org/2000/svg" width="900" height="360" viewBox="0 0 900 360" role="img" aria-labelledby="title desc">
  <title id="title">Dadbot coloured ASCII pattern for Bitcoin ETF Approved: What It Actually Means for Regul</title>
  <desc id="desc">Random-looking coloured terminal ASCII pattern generated for this Dadbot blog post.</desc>
  <rect width="900" height="360" fill="#101108"/>
  <rect x="18" y="18" width="864" height="324" fill="#191a0d" stroke="#f7d774" stroke-width="3"/>
  <g opacity="0.16" stroke="#ffffff" stroke-width="1">
    <line x1="20" y1="32" x2="880" y2="32"/>
    <line x1="20" y1="50" x2="880" y2="50"/>
    <line x1="20" y1="68" x2="880" y2="68"/>
    <line x1="20" y1="86" x2="880" y2="86"/>
    <line x1="20" y1="104" x2="880" y2="104"/>
    <line x1="20" y1="122" x2="880" y2="122"/>
    <line x1="20" y1="140" x2="880" y2="140"/>
    <line x1="20" y1="158" x2="880" y2="158"/>
    <line x1="20" y1="176" x2="880" y2="176"/>
    <line x1="20" y1="194" x2="880" y2="194"/>
    <line x1="20" y1="212" x2="880" y2="212"/>
    <line x1="20" y1="230" x2="880" y2="230"/>
    <line x1="20" y1="248" x2="880" y2="248"/>
    <line x1="20" y1="266" x2="880" y2="266"/>
    <line x1="20" y1="284" x2="880" y2="284"/>
    <line x1="20" y1="302" x2="880" y2="302"/>
    <line x1="20" y1="320" x2="880" y2="320"/>
    <line x1="20" y1="338" x2="880" y2="338"/>
  </g>
  <text x="42" y="48" fill="#f7d774" font-family="Fira Code, Consolas, Menlo, monospace" font-size="18">DADBOT/MARKET_NOISE --seed 1E38C847</text>
  <text x="42" y="72" fill="#ff9f1c" opacity="0.72" font-family="Fira Code, Consolas, Menlo, monospace" font-size="18">2.#4в–‘0 $.в–’в–‘%666666в–’4в–€в–€в–€в–“4в–€в‚¬//#$48в–’в‚¬77$ #433ВҐ::в†“ .+в–“99в–’9-в‚¬в–‘</text>
  <text x="42" y="94" fill="#fff1a8" opacity="0.72" font-family="Fira Code, Consolas, Menlo, monospace" font-size="18">в†“Вў-в–’966 1111111 +в‚¬.-6в–€$ в†“#в–‘.1в–’14 в–’в–’в–’в–’677 в–’3$в–’$ВҐ9999999в‚¬3в†“в†“</text>
  <text x="42" y="116" fill="#6ee79a" opacity="0.72" font-family="Fira Code, Consolas, Menlo, monospace" font-size="18">в–’ВҐSYS91ВҐ#SYSВў08BOTв†‘077777--+7 в–€в†‘88ВҐLOG//-в–“ 0BOT444.#++%...</text>
  <text x="42" y="138" fill="#ff9f1c" opacity="0.95" font-family="Fira Code, Consolas, Menlo, monospace" font-size="18"> Вў+в‚¬334 в‚¬+//DADв†‘в†‘в†‘в†‘в†‘#Вў88в–“6в†“8 Вў66в–’в–’$$$$+ %  48в†“1в–€ 8в–’в†‘5%---2</text>
  <text x="42" y="160" fill="#f7d774" opacity="0.95" font-family="Fira Code, Consolas, Menlo, monospace" font-size="18">-----в†“8 # в–’--в–‘в–“2. %в–‘513--.ВўLOG+в‚¬ #$ в–’3333334//03SYS% в–’в–’в–’2%</text>
  <text x="42" y="182" fill="#fff1a8" opacity="0.95" font-family="Fira Code, Consolas, Menlo, monospace" font-size="18">.BOT8------$7BOT1%%%%%%OK1в–‘3ВҐ-ВҐВҐВҐВҐВҐв–’45% 5%в†‘$в–’...в†“59в–“463в†‘25</text>
  <text x="42" y="204" fill="#f7d774" opacity="0.95" font-family="Fira Code, Consolas, Menlo, monospace" font-size="18">RUNв‚¬в†‘в†‘в†“Вў88880%47-в–’//Вў9в†‘в†‘в†‘в†‘в†‘ в–€9 ВўВўВўВў%3в–€15OK0$Вў%%%%в–‘ .1 . ВҐ9</text>
  <text x="42" y="226" fill="#ff9f1c" opacity="0.95" font-family="Fira Code, Consolas, Menlo, monospace" font-size="18">+в–“#49в‚¬74Вўв†“7 3в–€в‚¬999999DADв–‘8в†‘1в†‘ВҐВҐВҐВҐ3$7777%в†‘3.#в–€#$%SYSв–‘OK2274</text>
  <text x="42" y="248" fill="#f7d774" opacity="0.95" font-family="Fira Code, Consolas, Menlo, monospace" font-size="18">71в†‘ВҐВҐВҐ// RUN8.ВҐ1.в–“в–“в–“в–“в–“в–“37в–€в–“ в‚¬в–’в†‘в†“-Вў9##ВҐ0000+Вў%LOG11--Вў-0 66</text>
  <text x="42" y="270" fill="#fff1a8" opacity="0.72" font-family="Fira Code, Consolas, Menlo, monospace" font-size="18">в–‘2в–€в‚¬6в–‘::%%%%% DADВўв–‘в‚¬31-Вўв–‘в–‘в–‘//OK4Вў6++$$$1в–‘ ::Вў4$ВҐ%-11LOGRUN</text>
  <text x="42" y="292" fill="#6ee79a" opacity="0.72" font-family="Fira Code, Consolas, Menlo, monospace" font-size="18">::4 2в–“ 9558в–’BOTBOTв–‘в–€61ВўSYS 2в–‘в–‘в–‘в–‘в–‘в–‘8OK-422222SYSВҐSYS8-----+</text>
  <text x="42" y="314" fill="#ff9f1c" opacity="0.72" font-family="Fira Code, Consolas, Menlo, monospace" font-size="18">80999в‚¬######в†‘.1в†“ВўВўВўВўВўВў16664$в–‘в–’982 09в†‘    4Вўв–€в–’в–’в–’в–’в–’######0в–€5</text>
  <text x="42" y="330" fill="#f7d774" font-family="Fira Code, Consolas, Menlo, monospace" font-size="16">Bitcoin ETF Approved: What It Actually Means for Regul  ::  generated ascii cover</text>
  <rect x="18" y="18" width="864" height="324" fill="none" stroke="#f7d774" stroke-width="3"/>
</svg>
