<svg xmlns="http://www.w3.org/2000/svg" width="900" height="360" viewBox="0 0 900 360" role="img" aria-labelledby="title desc">
  <title id="title">Dadbot coloured ASCII pattern for Getting Started with Home Automation in 2024</title>
  <desc id="desc">Random-looking coloured terminal ASCII pattern generated for this Dadbot blog post.</desc>
  <rect width="900" height="360" fill="#071219"/>
  <rect x="18" y="18" width="864" height="324" fill="#0b1b22" stroke="#40c9ff" stroke-width="3"/>
  <g opacity="0.16" stroke="#ffffff" stroke-width="1">
    <line x1="20" y1="32" x2="880" y2="32"/>
    <line x1="20" y1="50" x2="880" y2="50"/>
    <line x1="20" y1="68" x2="880" y2="68"/>
    <line x1="20" y1="86" x2="880" y2="86"/>
    <line x1="20" y1="104" x2="880" y2="104"/>
    <line x1="20" y1="122" x2="880" y2="122"/>
    <line x1="20" y1="140" x2="880" y2="140"/>
    <line x1="20" y1="158" x2="880" y2="158"/>
    <line x1="20" y1="176" x2="880" y2="176"/>
    <line x1="20" y1="194" x2="880" y2="194"/>
    <line x1="20" y1="212" x2="880" y2="212"/>
    <line x1="20" y1="230" x2="880" y2="230"/>
    <line x1="20" y1="248" x2="880" y2="248"/>
    <line x1="20" y1="266" x2="880" y2="266"/>
    <line x1="20" y1="284" x2="880" y2="284"/>
    <line x1="20" y1="302" x2="880" y2="302"/>
    <line x1="20" y1="320" x2="880" y2="320"/>
    <line x1="20" y1="338" x2="880" y2="338"/>
  </g>
  <text x="42" y="48" fill="#40c9ff" font-family="Fira Code, Consolas, Menlo, monospace" font-size="18">DADBOT/HOME_NODE --seed 10FAABC9</text>
  <text x="42" y="72" fill="#6ee79a" opacity="0.72" font-family="Fira Code, Consolas, Menlo, monospace" font-size="18">_^&gt;111111 ▓▓▓▓▓ ^LOG▓:|~| [++█ [ --;* ░[____;| ;^ ^▒{{{{{{</text>
  <text x="42" y="94" fill="#6ee79a" opacity="0.72" font-family="Fira Code, Consolas, Menlo, monospace" font-size="18">/=OK*SYS+░&gt;&gt;++:::+ /;OK+^|||||#▓▓▓▓▓▒====== 000:▒▓▒:#LOG#░</text>
  <text x="42" y="116" fill="#d7f9ff" opacity="0.72" font-family="Fira Code, Consolas, Menlo, monospace" font-size="18">█&gt;|||//////^▒+1▓DAD ####▒▓&lt;*******::}}}}}RUN░░░░RUN: [[[[[</text>
  <text x="42" y="138" fill="#40c9ff" opacity="0.95" font-family="Fira Code, Consolas, Menlo, monospace" font-size="18">#_▓_0/░+█||}}}DAD_{▒[&gt;~0--█░░░░░░ 0▓111██|█░░░*▓1&gt;&gt;&gt;▓0]░//</text>
  <text x="42" y="160" fill="#40c9ff" opacity="0.95" font-family="Fira Code, Consolas, Menlo, monospace" font-size="18">^#▒▒▒0_▒▒▒▒▒▒ ░{▒|* :0#█} ▒#|=LOG===:} ████░&lt;0&gt;*_;+11]____</text>
  <text x="42" y="182" fill="#6ee79a" opacity="0.95" font-family="Fira Code, Consolas, Menlo, monospace" font-size="18">▒#:^_0000000}&gt;&lt;&gt;~^_&lt; SYS&gt;SYS[=&gt;&gt;//;;;▓=[[:::~1_ ++;;;;;;DA</text>
  <text x="42" y="204" fill="#d7f9ff" opacity="0.95" font-family="Fira Code, Consolas, Menlo, monospace" font-size="18">▒{[=DAD|}+#__*#^1 ▓++|*~&gt;OK{* SYSRUN=}# ::}]█{{{{~|||||~~]</text>
  <text x="42" y="226" fill="#b06cff" opacity="0.95" font-family="Fira Code, Consolas, Menlo, monospace" font-size="18">~█ _&lt;[]LOG0|;}}}} ::LOG[:::=OK//&gt;}+~&gt;▓++LOG&gt;111111&lt;;█RUN]]</text>
  <text x="42" y="248" fill="#40c9ff" opacity="0.95" font-family="Fira Code, Consolas, Menlo, monospace" font-size="18">}*OK{&lt;]&lt;▒}SYS}#SYS{{{{~]]]]][[[[▒&lt;;&gt;#=▒}--&gt;&gt;&gt;&gt;&gt;= &lt;&lt;&lt;{;101▓</text>
  <text x="42" y="270" fill="#d7f9ff" opacity="0.72" font-family="Fira Code, Consolas, Menlo, monospace" font-size="18">▒1░======={//[~░░░+ [++ {^^^&gt;^:~0]/▓░*: =▓▒#/{}}}} ▒}0_111</text>
  <text x="42" y="292" fill="#d7f9ff" opacity="0.72" font-family="Fira Code, Consolas, Menlo, monospace" font-size="18">█+▓▓▓▓[[[^LOG+|▒░░░░░░/0▒|; ▓ |*[{▒▒▒▒▒▒^▒ ▒▒▒▒▒;--~:*1BOT</text>
  <text x="42" y="314" fill="#b06cff" opacity="0.72" font-family="Fira Code, Consolas, Menlo, monospace" font-size="18">=++&lt;&lt;&lt;&lt;0_█░_▓▓;^[0▒|  ~~~░░░░///*| /_DAD^&lt;█ }++: |//;&gt;/]]]</text>
  <text x="42" y="330" fill="#40c9ff" font-family="Fira Code, Consolas, Menlo, monospace" font-size="16">Getting Started with Home Automation in 2024  ::  generated ascii cover</text>
  <rect x="18" y="18" width="864" height="324" fill="none" stroke="#40c9ff" stroke-width="3"/>
</svg>
