<svg xmlns="http://www.w3.org/2000/svg" width="900" height="360" viewBox="0 0 900 360" role="img" aria-labelledby="title desc">
  <title id="title">Dadbot coloured ASCII pattern for Surviving the Toddler Years: A Dad&#x27;s Honest Guide</title>
  <desc id="desc">Random-looking coloured terminal ASCII pattern generated for this Dadbot blog post.</desc>
  <rect width="900" height="360" fill="#130d16"/>
  <rect x="18" y="18" width="864" height="324" fill="#1b1220" stroke="#ff8bd1" stroke-width="3"/>
  <g opacity="0.16" stroke="#ffffff" stroke-width="1">
    <line x1="20" y1="32" x2="880" y2="32"/>
    <line x1="20" y1="50" x2="880" y2="50"/>
    <line x1="20" y1="68" x2="880" y2="68"/>
    <line x1="20" y1="86" x2="880" y2="86"/>
    <line x1="20" y1="104" x2="880" y2="104"/>
    <line x1="20" y1="122" x2="880" y2="122"/>
    <line x1="20" y1="140" x2="880" y2="140"/>
    <line x1="20" y1="158" x2="880" y2="158"/>
    <line x1="20" y1="176" x2="880" y2="176"/>
    <line x1="20" y1="194" x2="880" y2="194"/>
    <line x1="20" y1="212" x2="880" y2="212"/>
    <line x1="20" y1="230" x2="880" y2="230"/>
    <line x1="20" y1="248" x2="880" y2="248"/>
    <line x1="20" y1="266" x2="880" y2="266"/>
    <line x1="20" y1="284" x2="880" y2="284"/>
    <line x1="20" y1="302" x2="880" y2="302"/>
    <line x1="20" y1="320" x2="880" y2="320"/>
    <line x1="20" y1="338" x2="880" y2="338"/>
  </g>
  <text x="42" y="48" fill="#ff8bd1" font-family="Fira Code, Consolas, Menlo, monospace" font-size="18">DADBOT/CHAOS_MONITOR --seed 237FA895</text>
  <text x="42" y="72" fill="#6ee79a" opacity="0.72" font-family="Fira Code, Consolas, Menlo, monospace" font-size="18">?SYSCBOT ###+++#_B@Z@ B+\░&gt;&gt; @+-&gt;&gt;&gt;&gt;A B█ B&gt;XB▒XA&gt;&gt;&gt;&gt;&gt;--C-\</text>
  <text x="42" y="94" fill="#ffd1ea" opacity="0.72" font-family="Fira Code, Consolas, Menlo, monospace" font-size="18"> ▒B░+&lt; +RUN //&lt;ZZZZ▓▓▓!&lt;+DAD*#YY▓&lt;BOT▒00 ::@XY&gt;&gt;&gt;&gt;&gt;X█?BOTA</text>
  <text x="42" y="116" fill="#6ee79a" opacity="0.72" font-family="Fira Code, Consolas, Menlo, monospace" font-size="18">!!!_#@DAD\BOT 1@!&gt;- 0\&lt;A█1▒ZZZZZZZZZZZLOGBC-&gt;X&lt;A▒▒1YCOK++_</text>
  <text x="42" y="138" fill="#ffd1ea" opacity="0.95" font-family="Fira Code, Consolas, Menlo, monospace" font-size="18">*____▓C░_░▓C 0&lt; ▓Y█@!!!!-\▒/&lt;░||@\\\\/\  YA1::\+XXXXXX--0R</text>
  <text x="42" y="160" fill="#ff8bd1" opacity="0.95" font-family="Fira Code, Consolas, Menlo, monospace" font-size="18">##C#####\ Z▒ \ &gt;&gt;&gt; ::|0▓ |ZRUN#?-+C&gt;@#-!+█1 0#0?|ACCCCB&gt;\?</text>
  <text x="42" y="182" fill="#ffd1ea" opacity="0.95" font-family="Fira Code, Consolas, Menlo, monospace" font-size="18">▓+*YY!@#0░░░░A &lt;@/1\C/////*@ LOG_++SYS&lt;█▒_Y▓C\&gt;11111/+B?Z░</text>
  <text x="42" y="204" fill="#ffd1ea" opacity="0.95" font-family="Fira Code, Consolas, Menlo, monospace" font-size="18">-?Y█C░▒&lt;░|||▒▒▒▒▒▒  ░\#\░A|&lt;Z ?????::█ -▒ &gt;&gt;&gt;▓@!▓ +_&lt;&lt;&lt;&lt;&gt;B</text>
  <text x="42" y="226" fill="#ffd166" opacity="0.95" font-family="Fira Code, Consolas, Menlo, monospace" font-size="18">▓+Y# _&lt;-Y+\▓0--ZZZZ█  ░░RUN/////&gt;#_\!@@@++|Y A______OKY B&gt;</text>
  <text x="42" y="248" fill="#ff8bd1" opacity="0.95" font-family="Fira Code, Consolas, Menlo, monospace" font-size="18">//XYYY&lt;#0&gt;BBOT_░░░░░░█@▓▓▓▓C111111▒▓_A??????/////_!-CZOKBO</text>
  <text x="42" y="270" fill="#ffd1ea" opacity="0.72" font-family="Fira Code, Consolas, Menlo, monospace" font-size="18">▒▒▒▒▒▒|X-\@--BOT-+@0/▒▒\0X█@@@@BOT▒0&lt;ZXXXXX░░░░-//▓C+&gt;A@!1</text>
  <text x="42" y="292" fill="#6ee79a" opacity="0.72" font-family="Fira Code, Consolas, Menlo, monospace" font-size="18">0ZZZZZ&gt;//- YYYYYY-C#_&gt;0-OK+*0Z  @C░░▓▓▓▓▓BCCCC&lt;LOGZ!A&gt;B\0X</text>
  <text x="42" y="314" fill="#ffd166" opacity="0.72" font-family="Fira Code, Consolas, Menlo, monospace" font-size="18">@!ZRUN!!!! X▓▓▓▓▓▓&gt;-DAD_\@░░+Z+_Z ?**AACX_\-0▒▒▒ @░&lt;1/////</text>
  <text x="42" y="330" fill="#ff8bd1" font-family="Fira Code, Consolas, Menlo, monospace" font-size="16">Surviving the Toddler Years: A Dad&#x27;s Honest Guide  ::  generated ascii cover</text>
  <rect x="18" y="18" width="864" height="324" fill="none" stroke="#ff8bd1" stroke-width="3"/>
</svg>
